<svg xmlns="http://www.w3.org/2000/svg" viewBox="0 0 1024 1024" fill="none">
  <defs>
    <linearGradient id="bg" x1="160" y1="80" x2="864" y2="944" gradientUnits="userSpaceOnUse">
      <stop offset="0" stop-color="#4c1d95"/>
      <stop offset="0.5" stop-color="#7c3aed"/>
      <stop offset="1" stop-color="#d946ef"/>
    </linearGradient>
    <linearGradient id="highlight" x1="300" y1="180" x2="760" y2="780" gradientUnits="userSpaceOnUse">
      <stop offset="0" stop-color="#ffffff" stop-opacity="0.28"/>
      <stop offset="1" stop-color="#ffffff" stop-opacity="0"/>
    </linearGradient>
    <filter id="shadow" x="-10%" y="-10%" width="120%" height="120%">
      <feDropShadow dx="0" dy="18" stdDeviation="18" flood-color="#4c1d95" flood-opacity="0.22"/>
    </filter>
  </defs>
  <g filter="url(#shadow)">
    <path d="M498 98C301 98 134 235 95 427C50 652 191 879 417 928C590 967 775 878 857 724C892 658 871 622 833 588L760 524C725 493 715 468 724 434C753 328 692 253 593 208C559 193 532 98 498 98Z" fill="url(#bg)"/>
    <path d="M498 220C352 220 232 330 214 470C193 638 311 780 478 809C610 832 748 766 810 650C823 627 819 601 799 584L730 524C709 506 704 484 711 454C732 371 680 306 599 270C567 257 535 220 498 220Z" fill="url(#highlight)"/>
    <path d="M764 456L520 548C494 557 477 575 468 601L421 716C412 737 424 756 447 756L601 756C635 756 653 746 667 718L770 500C781 476 781 463 764 456Z" fill="#d946ef"/>
    <path d="M776 492L652 612C639 625 635 639 639 656L646 686C651 709 671 718 692 706L811 641C836 627 844 596 833 570L819 538C810 515 798 490 776 492Z" fill="#6d28d9" opacity="0.7"/>
    <path d="M408 717V420C408 392 429 371 457 371H487C515 371 536 392 536 420V717C536 736 521 752 502 752H442C423 752 408 736 408 717Z" fill="#ffffff"/>
    <path d="M384 376L468 529C482 556 483 585 473 614L455 663C449 680 458 694 476 694H503C519 694 533 684 538 669L589 519C598 493 594 467 580 444L515 335C503 313 492 304 470 304H428C405 304 390 332 384 376Z" fill="url(#highlight)"/>
    <path d="M452 378H533L605 378C625 378 630 395 619 409L550 498C540 510 530 515 514 515H462C443 515 432 505 432 488V398C432 387 441 378 452 378Z" fill="url(#bg)"/>
    <path d="M512 321L596 406C611 421 633 421 648 406L756 298C768 286 764 265 748 259C654 222 573 201 501 201C475 201 461 217 461 241V287C461 299 469 312 482 316C490 318 501 318 512 321Z" fill="#ffffff" fill-opacity="0.18"/>
    <path d="M518 246L578 246L578 286L518 286Z" fill="#ffffff" fill-opacity="0.16"/>
  </g>
</svg>
